<svg id="website-basic-design" xmlns="http://www.w3.org/2000/svg" viewBox="0 0 1366 768"><defs><style>.cls-1{opacity:0.9;}.cls-2,.cls-3{stroke:#050505;stroke-miterlimit:10;}.cls-3{fill:#fff;}</style></defs><title>drums</title><g id="drum-set" class="cls-1"><path class="cls-2" d="M753.28,620.81c-.94-8.16-2.11-18.3-3.36-29.13L742,593.09c3.25-8.09,6.65-16.68,10.15-25.23,7.51-18.38,14.86-36.84,22.87-55,1.1-2.49,5.57-3.51,7.73-4.77-16.22-6.26-33.55-10.48-48.08-19.3-13.44-8.15-23.89-21.24-35.84-32.34,0-11.67-.81-25.38.16-38.95,2.23-31.19,9.55-60.29,40.49-78.27-7.52-6.61-13.19-11.61-16.3-14.35l-38.33,8.9C681.27,366,677.34,401.06,673.43,436c-22.87,5-22.64,4.92-25.45-17.32-3.57-28.21-7.71-56.36-12.15-88.43l-29.37,8.81c7.71,14.11,14.45,25,19.75,36.56a260.66,260.66,0,0,1,13.36,36c1.16,4-.18,11-3.08,13.6-14,12.73-18,28.52-17,46.19-18.64,7.3-36.75,16.23-55.87,21.47-38.63,10.59-101.4-19.12-99.14-80.08,1.05-28.31,13.88-56.81,42-71.66,13.77-7.28,16.23-13.52,8.28-26.81-6.17-10.31-9.4-22.38-14.53-35.16-38.65,16.55-77.07,16.95-112.36-8.46-26.41-19-42-45.87-45.68-78.24C336,138.64,372.57,83.75,435.67,74.88c65.17-9.16,111.3,36.53,122.5,121.72l20.54-1.75L577.25,192c4.83-3.46,9.59-9.8,14.51-9.93,35-.95,70.13-.81,105.2-.55,5.51,0,11,2.44,17.86,4.07l5.42-7.51c-2.23-.77-3.55-1.63-4.85-1.62-25.46.29-50.93.23-76.36,1.21-14.75.56-19.26-5.84-16-21.92,19.29,7.21,37.58-12.42,57.76-.49,2.71,1.6,7.23,1.42,10.5.54,13.52-3.64,25.31-3.63,29.39,9.36,11-4.63,21.38-8.07,30.87-13.15q63.18-33.81,122.68,5.57c39.11,26,55.92,76.66,41.72,124.18-1.24,4.16-2.36,8.36-4.12,14.62,48-12.69,89.24-4.89,119.26,34.39,30.35,39.69,26.88,81.33.28,123.73,4.69,2.82,8.84,5.29,13,7.79,43.24,26.21,66.62,64.79,64.83,115.14-1.81,50.78-27.69,88.36-75.38,107.13-50.15,19.73-96,8.81-135.84-27-7-6.32-11.23-8.34-20.35-2.49-38.16,24.47-84.66,14.45-112-22.6C762.24,627.91,757.27,624.53,753.28,620.81ZM625.85,412.93c-2.8-10.71-3.91-22.27-8.76-32-9.94-19.84-21.69-38.13-49.31-34.67-8.07,1-16.72-3.59-25.21-4.81-6.61-.95-14.05-2.59-20-.59-36,12.1-57.19,51-48.8,87.77,8.82,38.59,45.16,64.77,83.73,60.33C594.39,484.76,623.87,451.29,625.85,412.93Zm79.23,7.38c-.66,36.44,26.26,68.42,64.25,76.33,32.88,6.85,71.19-14.26,83.81-46.71,1.69-4.33,1.55-9.82.83-14.56-2.59-16.95-6.34-33.73-8.58-50.71a26.44,26.44,0,0,0-25.08-23c-16.11-.8-33.69.36-47.83-5.78-19-8.27-31-1.44-43.5,10C713,380.48,706.39,399.25,705.08,420.31Zm161.55,98.81c-31.17-19.05-74.19-9.54-96.09,20.27-24.27,33-18.06,77.76,14.62,105.38,28.94,24.45,72.59,23.88,97.8-2.12C856.53,604.47,850.11,562.89,866.63,519.12ZM573,339.94c33.66-.23,65.14-29.9,63.28-59.65-2.28-36.46-35-64.09-71-59.9-10,1.17-17.25,4.9-22.7,14.88-6.2,11.37-16.44,20.46-24,31.21-3.72,5.3-7.57,12.17-7.42,18.23C511.91,315,540.68,340.16,573,339.94Zm101.38,36.95-12.41-10.3c3.2-2.95,6.71-5.64,9.5-8.94,2.11-2.48,5.4-6.88,4.54-8.44-3.48-6.32-8.35-11.88-12.72-17.72-5.71,4.6-16.57,9.58-16.27,13.74,1.56,21.34,5.84,42.5,9.69,63.63.32,1.77,4.62,4.12,6.82,3.88s5-3.25,5.49-5.49C671.19,397.08,672.67,386.75,674.34,376.89ZM834.46,486.57l11.6,6.36,6-11.75,3.58.12c1.13,6.71,2.27,13.42,3.37,19.93,19.63,5.77,23.59-11,33.14-20.87L861.92,451.5ZM654.89,246.92c7.93,4.91,12.47,9.87,15.42,9.05,4.37-1.21,11-7,10.54-9.95-.65-4.39-6.12-10.22-10.47-11.16C667.28,234.19,662.66,240.55,654.89,246.92Zm-31.46-22.71c3.51-10.6,5.74-17.32,8.47-25.55C613.43,201.5,613.42,209.19,623.43,224.21Zm14.08,85.34c0,.45,0,.9,0,1.36h71c0-.46,0-.91,0-1.36ZM553.89,209.22c0,1.4,0,2.8.05,4.19h30.74c0-1.39,0-2.79,0-4.19Z"/><path class="cls-2" d="M457.39,451.4l-11.6-13.58c-20,9.49-23,19.11-11.5,39.64-29.36,14.62-54.75,37.54-90.75,36.7-39.38-.92-74.32-27.67-84-65.58-10.25-40.31,7.84-82.51,43.51-101.55a87,87,0,0,1,106,18.89c13.62,15.36,27.37,31,38.14,48.32C453.46,424.31,454,438,457.39,451.4Z"/><path class="cls-2" d="M456.73,494c11.5-13.61,20.82-11.12,26.78-4.06,5,5.95,8,15.18,8,23,0,3.1-14.54,9.81-15.41,8.8C468.48,512.8,462.41,502.55,456.73,494Z"/><path class="cls-2" d="M611.8,176.52H585.05c-.6-5.36-1.14-10.25-1.91-17.09l28.66-2.2Z"/><path class="cls-2" d="M938.94,219.67,931,203.14l11.33-3.82,5.1,17Z"/><path class="cls-2" d="M575.82,157.49c1.35,5.25,2.69,10.49,5.17,20.13-6.38-2.51-13.61-3.78-13.8-5.73-.5-5.13,2.07-10.56,3.42-15.86Z"/><path class="cls-3" d="M625.85,412.93c-2,38.36-31.46,71.83-68.34,76.07-38.57,4.44-74.91-21.74-83.73-60.33-8.39-36.73,12.85-75.67,48.8-87.77,5.94-2,13.38-.36,20,.59,8.49,1.22,17.14,5.82,25.21,4.81,27.62-3.46,39.37,14.83,49.31,34.67C621.94,390.66,623.05,402.22,625.85,412.93Z"/><path class="cls-3" d="M705.07,420.3c1.32-21.05,7.94-39.82,23.91-54.38,12.53-11.43,24.47-18.26,43.5-10,14.14,6.14,31.72,5,47.83,5.78a26.44,26.44,0,0,1,25.08,23c2.24,17,6,33.76,8.58,50.71.72,4.74.86,10.23-.83,14.56-12.62,32.45-50.93,53.56-83.81,46.71C731.34,488.73,704.42,456.75,705.07,420.3Z"/><path class="cls-3" d="M866.63,519.12c-16.52,43.77-10.1,85.35,16.33,123.53-25.21,26-68.86,26.57-97.8,2.12-32.68-27.62-38.89-72.34-14.62-105.38C792.44,509.58,835.46,500.07,866.63,519.12Z"/><path class="cls-3" d="M573,339.94c-32.28.22-61.05-24.91-61.8-55.23-.15-6.06,3.7-12.93,7.42-18.23,7.53-10.75,17.77-19.84,24-31.21,5.45-10,12.68-13.71,22.7-14.88,36-4.19,68.71,23.44,71,59.9C638.1,310,606.62,339.71,573,339.94Z"/></g></svg>